<svg width="598" height="172" viewBox="0 0 598 172" fill="none" xmlns="http://www.w3.org/2000/svg">
<path d="M184.729 148.677L174 151.219V115L181.376 118.881L184.729 148.677Z" fill="black"/>
<path d="M227.796 147.014H221.313V130.617C221.313 126.882 222.492 123.118 220.724 128.431L213.652 147.014H207.759L200.687 128.431C199.213 122.265 200.097 128.16 200.097 131.71V147.014H194.204V119.686H203.633L210.116 136.083C211.53 140.015 210.915 140.418 212.473 136.083L218.367 119.686H227.796V147.014Z" fill="black"/>
<path d="M270.818 147.014H264.335V130.617C264.335 126.882 265.514 123.118 263.746 128.431L256.674 147.014H250.78L243.708 128.431C242.235 122.265 243.119 128.16 243.119 131.71V147.014H237.225V119.686H246.655L253.138 136.083C254.551 140.015 253.937 140.418 255.495 136.083L261.388 119.686H270.818V147.014Z" fill="black"/>
<path d="M297.928 147.014H280.247V119.686H297.338V124.605H286.73V130.617H296.749V135.536H286.73V142.095H297.928V147.014Z" fill="black"/>
<path d="M329.752 147.014H325.921H322.09C320.416 144.49 316.996 136.629 313.25 136.629H311.482V147.014H305V119.686H315.608C322.68 119.686 326.216 122.236 326.216 127.338C326.216 131.56 322.09 134.202 319.733 134.989C322.675 136.349 325.985 141.133 328.148 144.492C328.801 145.507 329.35 146.393 329.752 147.014ZM311.482 124.605V131.71H314.429C316.001 131.71 317.179 131.346 317.965 130.617C318.751 129.888 319.144 128.977 319.144 127.884C319.144 125.698 317.572 124.605 314.429 124.605H311.482Z" fill="black"/>
<path d="M333.682 146.01V140.959C336.419 142.864 346.163 145.647 346.163 139.997C346.163 135.713 337.935 134.872 335.45 131.799C329.788 126.549 334 121.539 340.262 119.745C344.623 118.496 350.23 119.425 353.13 120.321V125.437C350.669 124.296 340.754 121.786 340.754 126.88C340.754 132.208 351.232 131.558 353.719 136.171C357.414 146.451 340.908 150.478 333.682 146.01Z" fill="black"/>
<path d="M367.47 147.014H360.987V119.686H367.47V147.014Z" fill="black"/>
<path d="M387.507 147.561C383.185 147.561 379.846 146.285 377.488 143.735C374.738 141.184 373.363 137.905 373.363 133.897C373.363 129.524 374.738 125.88 377.488 122.965C379.846 120.415 383.382 119.139 388.097 119.139C392.418 119.139 395.954 120.415 398.705 122.965C401.062 125.516 402.241 128.978 402.241 133.35C402.241 137.358 400.866 140.82 398.115 143.735C395.365 146.285 391.829 147.561 387.507 147.561ZM388.097 124.605C385.739 124.605 383.775 125.516 382.203 127.338C381.024 128.795 380.435 130.799 380.435 133.35C380.435 136.265 381.024 138.451 382.203 139.909C383.775 141.366 385.543 142.095 387.507 142.095C389.865 142.095 391.633 141.366 392.811 139.909C394.383 138.451 395.169 136.265 395.169 133.35C395.169 130.435 394.383 128.249 392.811 126.791C391.633 125.334 390.061 124.605 388.097 124.605Z" fill="black"/>
<path d="M436.558 146.467H430.076L417.7 129.524C416.914 128.431 416.324 127.52 415.931 126.791C415.931 127.884 415.931 129.524 415.931 131.71V146.467H410.038V119.139H417.11L428.897 135.536C429.29 136.265 429.879 137.176 430.665 138.269C430.272 137.54 430.076 136.265 430.076 134.443V119.139H436.558V146.467Z" fill="black"/>
<path d="M464.121 147.014H462.943L451.745 119.686H454.103L462.943 141.548C463.336 142.641 463.532 143.552 463.532 144.281C463.925 143.552 464.318 142.641 464.711 141.548L473.551 119.686H475.908L464.121 147.014Z" fill="black"/>
<path d="M520.109 147.014V119.686H522.466V147.014H520.109Z" fill="black"/>
<path d="M531.895 147.014V119.686H539.556C544.664 119.686 548.397 120.779 550.754 122.965C553.504 125.151 554.879 128.431 554.879 132.803C554.879 137.176 553.504 140.637 550.754 143.188C548.004 145.739 544.075 147.014 538.967 147.014H531.895ZM534.252 121.325V145.374H538.967C543.289 145.374 546.629 144.281 548.986 142.095C551.343 139.909 552.522 136.811 552.522 132.803C552.522 125.151 548.2 121.325 539.556 121.325H534.252Z" fill="black"/>
<path d="M496.406 121.209C503.221 121.209 508.745 126.769 508.745 133.627C508.745 140.485 503.221 146.045 496.406 146.045C489.592 146.045 484.068 140.485 484.068 133.627C484.068 126.769 489.592 121.209 496.406 121.209Z" stroke="black" stroke-width="3"/>
<path d="M496.943 130.522C498.72 130.522 500.162 131.912 500.162 133.627C500.162 135.342 498.72 136.731 496.943 136.731C495.165 136.731 493.724 135.342 493.724 133.627C493.724 131.912 495.165 130.522 496.943 130.522Z" fill="black"/>
<path d="M486.75 141.388C489.231 144.039 492.903 146.045 496.406 146.045C499.91 146.045 503.582 144.039 506.062 141.388" stroke="black" stroke-width="3" stroke-linecap="round"/>
<path d="M175.256 30.0027L179.863 24.6543C188.909 31.5661 194.521 36.5853 196.197 38.231L190.752 43.5793C190.752 43.5793 179.724 33.7054 175.256 30.0027Z" fill="black"/>
<path d="M175.256 52.6304L179.863 46.4592C188.909 53.0418 194.521 57.7045 196.197 59.213L190.752 65.3842C190.752 65.3842 180.003 56.0589 175.256 52.6304Z" fill="black"/>
<path d="M196.197 74.0239L189.077 70.3212C185.559 76.7392 177.56 91.9204 174 98.7087L181.538 102C181.538 102 191.171 82.9379 196.197 74.0239Z" fill="black"/>
<path d="M199.128 44.8136V28.357H255.248H258.598H262.786V44.8136H255.248V36.5853H207.085V44.8136H199.128Z" fill="black"/>
<path d="M209.598 48.9277H243.103H246.034H250.641V95.4174L254.64 95.3475C254.64 95.3475 256.923 94.5946 256.923 93.3603V85.9549H264.462V95.4174C263.048 100.711 261.045 101.172 256.923 101.169C253.756 101.166 248.748 101.169 245.4 101.169C243.72 101.169 243.103 95.4174 243.103 95.4174V56.7445H217.556V74.0239C217.556 79.7837 205.41 98.8458 202.897 102L196.197 97.4745C196.197 97.4745 209.598 78.138 209.598 74.0239C209.633 73.873 209.586 73.3242 209.598 73.2011V48.9277Z" fill="black"/>
<path d="M277.444 30.8255L282.889 24.6543L298.803 37.8195L293.359 43.5793L277.444 30.8255Z" fill="black"/>
<path d="M283.308 45.6364L277.444 51.8076L293.359 64.9728L298.385 58.3902L283.308 45.6364Z" fill="black"/>
<path d="M276.188 96.6516C276.188 96.6516 286.658 78.0009 291.265 69.4984L298.385 73.6125C298.385 73.6125 286.937 94.5946 283.308 100.766L276.188 96.6516Z" fill="black"/>
<path d="M353.667 26.3L305.085 25.8886V33.7054H353.667C355.677 34.6928 354.504 35.7625 353.667 36.1739H308.855V43.9907H352.829C354.504 44.9781 353.527 46.0478 352.829 46.4592H305.085V53.8647H353.667C353.667 53.8647 361.205 53.8647 362.043 47.6935V26.3H353.667Z" fill="black"/>
<path d="M357.855 57.5674H301.316V73.6125H308.855V65.3842H357.855V73.6125H365.393V57.5674H361.624H357.855Z" fill="black"/>
<path d="M348.222 69.4984H311.368V76.4924C322.536 76.4924 345.374 76.5747 347.385 76.9038C349.395 77.2329 348.781 78.138 348.222 78.5494C348.222 78.5494 336.356 84.3092 333.564 85.1321C333.564 85.1321 316.812 80.7437 309.692 78.5494L307.598 85.9549C307.598 85.9549 318.766 89.2462 320.581 90.069C320.581 90.069 306.761 92.9489 300.06 93.7717L301.316 102C301.316 102 325.746 96.3774 334.402 93.7717C334.402 93.7717 357.715 99.6687 363.299 101.589L365.393 93.7717C365.393 93.7717 349.479 88.8348 345.709 88.0119C351.07 86.0372 354.644 83.3493 355.761 82.2522V69.4984H352.41H348.222Z" fill="black"/>
<path d="M377.12 46.0478C387.506 39.4652 397.168 27.6627 399.96 23L405.179 29.1799C405.179 29.1799 399.037 36.4482 396.803 39.0538V97.8421L388.427 102V47.282C388.009 46.8706 382.145 52.219 381.727 52.6304C381.308 53.0418 382.145 53.0418 377.12 46.0478Z" fill="black"/>
<path d="M434.077 24.2429L427.376 27.1228C429.386 31.0724 430.168 34.254 430.308 35.3511H405.179V42.7565H463.393V35.3511H438.684C436.674 29.0976 434.775 25.34 434.077 24.2429Z" fill="black"/>
<path d="M416.906 48.9277L408.53 51.8076C413.221 59.0485 418.028 76.7376 420.96 86.2001L430.308 85.1321C430.308 85.1321 419.838 55.7846 416.906 48.9277Z" fill="black"/>
<path d="M460.462 50.9848L452.923 47.6935C452.923 50.9848 435.752 90.8918 434.496 92.9489C433.491 94.5946 432.96 94.7317 432.82 94.5946H401.829V102H468V94.5946H444.128C443.57 94.7317 442.453 94.7591 442.453 93.7717C449.154 80.6065 457.251 59.7616 460.462 50.9848Z" fill="black"/>
<path d="M104.916 27.7021C128.998 37.3823 146 60.9557 146 88.5C146 124.674 116.674 154 80.5 154C79.3295 154 78.1662 153.969 77.0107 153.908L104.916 141.322V27.7021ZM80.5 23C83.0577 23 85.5812 23.1464 88.0625 23.4316L59.3711 37.5557V150.517C33.564 141.727 15.0001 117.281 15 88.5C15 52.3254 44.3254 23 80.5 23Z" fill="black"/>
<path d="M60.7795 38.4946L83.7867 45.4202V135.805L60.7795 150.009V38.4946Z" fill="black"/>
</svg>
