<svg width="1024" height="1024" viewBox="0 0 1024 1024" fill="none" xmlns="http://www.w3.org/2000/svg">
<path d="M342.659 914.49V832.498L296.048 788.349L355.71 708.879V567.601C240.115 541.111 184.182 399.832 221.471 276.213C268.082 134.934 436.699 76.7585 604.499 112.078C735.01 138.568 836.736 258.553 808.77 373.342C790.125 435.152 836.736 470.471 864.703 505.791C901.992 549.941 846.058 570.25 808.77 587.909C799.447 605.569 831.143 624.995 812.498 651.485C793.854 677.975 840.465 709.762 812.498 745.082C784.532 771.572 706.225 713.294 650.292 757.444C594.359 801.594 622.326 850.158 622.326 894.308V914.49" stroke="white" stroke-width="30" stroke-linecap="round" stroke-linejoin="round"/>
<path d="M417.237 933.929V496.961L351.981 417.492" stroke="white" stroke-width="30" stroke-linecap="round" stroke-linejoin="round"/>
<path d="M351.982 438.684C364.338 438.684 374.355 429.196 374.355 417.492C374.355 405.788 364.338 396.3 351.982 396.3C339.625 396.3 329.608 405.788 329.608 417.492C329.608 429.196 339.625 438.684 351.982 438.684Z" fill="white" stroke="white" stroke-width="30" stroke-linecap="round" stroke-linejoin="round"/>
<path d="M478.764 947.288V320.363L454.526 258.553" stroke="white" stroke-width="30" stroke-linecap="round" stroke-linejoin="round"/>
<path d="M454.526 279.745C466.882 279.745 476.899 270.257 476.899 258.553C476.899 246.849 466.882 237.361 454.526 237.361C442.169 237.361 432.152 246.849 432.152 258.553C432.152 270.257 442.169 279.745 454.526 279.745Z" fill="white" stroke="white" stroke-width="30" stroke-linecap="round" stroke-linejoin="round"/>
<path d="M542.154 931.77V373.342L622.325 293.873" stroke="white" stroke-width="30" stroke-linecap="round" stroke-linejoin="round"/>
<path d="M622.325 315.064C634.682 315.064 644.699 305.576 644.699 293.872C644.699 282.169 634.682 272.681 622.325 272.681C609.969 272.681 599.952 282.169 599.952 293.872C599.952 305.576 609.969 315.064 622.325 315.064Z" fill="white" stroke="white" stroke-width="30" stroke-linecap="round" stroke-linejoin="round"/>
<path d="M599.952 717.709V475.483L687.581 408.662" stroke="white" stroke-width="30" stroke-linecap="round" stroke-linejoin="round"/>
<path d="M687.581 429.854C699.937 429.854 709.954 420.366 709.954 408.662C709.954 396.958 699.937 387.47 687.581 387.47C675.224 387.47 665.208 396.958 665.208 408.662C665.208 420.366 675.224 429.854 687.581 429.854Z" fill="white" stroke="white" stroke-width="30" stroke-linecap="round" stroke-linejoin="round"/>
</svg>
